<svg xmlns="http://www.w3.org/2000/svg" xmlns:xlink="http://www.w3.org/1999/xlink" version="1.1" x="0px" y="0px" viewBox="0 0 139 173.75" enable-background="new 0 0 139 139" xml:space="preserve"><path d="M69.499,130.844c-34.646,0-62.833-28.188-62.833-62.834c0-34.646,28.187-62.835,62.833-62.835  c34.647,0,62.835,28.187,62.835,62.834C132.334,102.656,104.146,130.844,69.499,130.844z M69.499,15.175  c-29.132,0-52.833,23.701-52.833,52.834c0,29.134,23.701,52.834,52.833,52.834c29.133,0,52.835-23.7,52.835-52.834  C122.334,38.876,98.632,15.175,69.499,15.175z"/><path d="M100.029,61.251c-1.068-11.247-10.537-20.045-22.064-20.045c-9.612,0-17.792,6.117-20.866,14.671  c-1.58-0.759-3.345-1.196-5.215-1.196c-6.184,0-11.274,4.647-11.989,10.64c-6.47,1.785-11.223,7.708-11.223,14.746  c0,8.451,6.851,15.302,15.301,15.302h17.439V82.41H53.7c-1.259,0-2.392-0.797-2.865-2.014c-0.474-1.215-0.19-2.609,0.713-3.523  l17.03-17.183c1.2-1.211,3.105-1.211,4.304,0l16.841,16.994c0.7,0.59,1.148,1.491,1.148,2.504c0,1.779-1.385,3.223-3.092,3.223  c-0.006,0-0.012,0-0.018,0h-8.304v12.958h9.374c0.58,0,1.15-0.035,1.715-0.099c0.616,0.064,1.242,0.099,1.876,0.099  c9.89,0,17.905-8.019,17.905-17.906C110.328,70.293,106.113,64.112,100.029,61.251z"/></svg>
